# xmcd CD database file
# Copyright (C) 1995-1998 Ti Kan
#
# Track frame offsets:
#	150
#	13550
#	31515
#	45697
#	60972
#	78110
#	87782
#	99752
#	114292
#	127387
#	144450
#	162567
#	178532
#	192859
#	209820
#
# Disc length: 2970 seconds
#
# Revision: 1
# Processed by: cddbd v1.5.2PL0 Copyright (c) Steve Scherf et al.
# Submitted via: CDex 1.30Release
#
DISCID=bb0b980f
DTITLE=Amalia Mendoza - Boleros y rancheras de oro (Disco 1)
DYEAR=1996
DGENRE=Country
TTITLE0=Puñalada trapera
TTITLE1=Paloma negra
TTITLE2=Volver, volver
TTITLE3=Maldición ranchera
TTITLE4=Llegando a ti
TTITLE5=Que manera de perder
TTITLE6=La noche de mi mal
TTITLE7=Echame a mí la culpa
TTITLE8=Si nos dejan
TTITLE9=Cuando el destino
TTITLE10=Vámonos
TTITLE11=Leña de pirul
TTITLE12=No volveré
TTITLE13=Caminos de Michoacán
TTITLE14=Para morir iguales
EXTD=YEAR: 1996 ID3G:   2
EXTT0=
EXTT1=
EXTT2=
EXTT3=
EXTT4=
EXTT5=
EXTT6=
EXTT7=
EXTT8=
EXTT9=
EXTT10=
EXTT11=
EXTT12=
EXTT13=
EXTT14=
PLAYORDER=
